<svg width="350" height="350" viewBox="0 0 350 350" xmlns="http://www.w3.org/2000/svg"><g fill="none" fill-rule="evenodd"><ellipse fill-opacity=".1" fill="#000" fill-rule="nonzero" cx="175" cy="288" rx="115" ry="22"/><path fill="#c98d7d" fill-rule="nonzero" d="M80 188h190v100H80z"/><path fill="#fff" fill-rule="nonzero" d="M125 208h100v60H125z"/><path fill="#222" fill-rule="nonzero" opacity=".05" d="M119.515 216.657l14.142-14.142 2.828 2.828-14.142 14.142zM216.343 202.515l14.142 14.142-2.828 2.828-14.142-14.142zM213.515 270.657l14.142-14.142 2.828 2.828-14.142 14.142zM122.343 256.515l14.142 14.142-2.828 2.828-14.142-14.142z"/><path d="M153.655 242.907v-9.8h3.234c.663 0 1.32.086 1.974.259a5.207 5.207 0 0 1 1.757.826c.518.378.938.875 1.26 1.491.322.616.483 1.367.483 2.254s-.161 1.647-.483 2.282a4.444 4.444 0 0 1-1.26 1.547 5.119 5.119 0 0 1-1.757.868 7.325 7.325 0 0 1-1.974.273h-3.234zm2.912-7.882h-.826v5.964h.84c.523 0 1.008-.051 1.456-.154a3.072 3.072 0 0 0 1.155-.511 2.47 2.47 0 0 0 .763-.945c.187-.392.28-.873.28-1.442 0-.55-.093-1.013-.28-1.386a2.324 2.324 0 0 0-.77-.896 3.266 3.266 0 0 0-1.162-.483 6.81 6.81 0 0 0-1.456-.147zm7.972 2.968c0-.728.13-1.402.392-2.023a4.905 4.905 0 0 1 1.071-1.603 4.876 4.876 0 0 1 1.603-1.05 5.162 5.162 0 0 1 1.974-.378c.7 0 1.36.126 1.981.378.62.252 1.16.602 1.617 1.05a4.94 4.94 0 0 1 1.085 1.603c.266.62.399 1.295.399 2.023 0 .737-.133 1.419-.399 2.044a4.843 4.843 0 0 1-1.085 1.603 4.996 4.996 0 0 1-1.617 1.043 5.215 5.215 0 0 1-1.981.378c-.7 0-1.358-.126-1.974-.378a4.933 4.933 0 0 1-1.603-1.043 4.809 4.809 0 0 1-1.071-1.603 5.248 5.248 0 0 1-.392-2.044zm2.128 0c0 .42.068.819.203 1.197.135.378.329.71.581.994.252.285.56.509.924.672.364.163.78.245 1.246.245a2.93 2.93 0 0 0 1.225-.245 2.63 2.63 0 0 0 .91-.672c.247-.285.439-.616.574-.994.135-.378.203-.777.203-1.197 0-.41-.07-.805-.21-1.183a2.969 2.969 0 0 0-.595-.987 2.91 2.91 0 0 0-.924-.672 2.758 2.758 0 0 0-1.183-.252c-.467 0-.882.084-1.246.252a2.81 2.81 0 0 0-.924.672c-.252.28-.446.609-.581.987a3.483 3.483 0 0 0-.203 1.183zm16.61 4.914l-3.962-6.608v6.608h-2.086v-9.8h2.506l3.962 6.636v-6.636h2.072v9.8h-2.492zm9.624-3.85l-1.204-.21c-.915-.15-1.659-.467-2.233-.952-.574-.485-.861-1.148-.861-1.988 0-.476.103-.898.308-1.267.205-.369.476-.679.812-.931a3.669 3.669 0 0 1 1.155-.574 4.66 4.66 0 0 1 1.351-.196c.859 0 1.605.159 2.24.476.635.317 1.148.681 1.54 1.092l-1.4 1.47a4.594 4.594 0 0 0-1.092-.805 2.925 2.925 0 0 0-1.4-.329c-.439 0-.789.089-1.05.266-.261.177-.392.41-.392.7 0 .233.105.441.315.623.21.182.572.32 1.085.413l.966.154c1.073.177 1.892.516 2.457 1.015.565.5.847 1.183.847 2.051 0 .896-.357 1.62-1.071 2.17-.714.55-1.659.826-2.835.826-.905 0-1.71-.187-2.415-.56-.705-.373-1.258-.812-1.659-1.316l1.428-1.442c.299.392.681.726 1.148 1.001.467.275 1.008.413 1.624.413.541 0 .961-.103 1.26-.308.299-.205.448-.457.448-.756 0-.243-.103-.453-.308-.63-.205-.177-.56-.313-1.064-.406z" fill="#222"/><path fill="#b47e70" fill-rule="nonzero" d="M70 168h210v20H70z"/><path fill="#b47e70" fill-rule="nonzero" d="M70 168h210v20H70z"/><path fill="#c98d7d" fill-rule="nonzero" d="M100 142h150l30 26H70z"/><path fill="#966c61" fill-rule="nonzero" d="M147 154h56l2 2h-60z"/><path d="M136.305 91.452a3.779 3.779 0 0 0 .703 6.907l8.79 2.508 2.437-8.548a3.766 3.766 0 0 0-.287-3.02 3.78 3.78 0 1 0-6.87 3.078 3.775 3.775 0 0 0-4.773-.925z" fill="#19b4Ffa"/><path d="M193.812 41.138a2.267 2.267 0 0 0-3.336 2.495l1.427 5.296 5.15-1.388a2.265 2.265 0 0 0 .63-4.176 2.268 2.268 0 0 0-2.872.513 2.265 2.265 0 0 0-1-2.74z" fill="#f00"/><path d="M184.142 155h-9.15l-5.039-9.856a6.298 6.298 0 0 1 7.62-8.707 6.292 6.292 0 0 1 4.298 6.868 6.3 6.3 0 0 1 7.507-3.051 6.292 6.292 0 0 1 4.054 7.928 6.276 6.276 0 0 1-3.355 3.782L184.142 155z" fill="#19b4fa"/><path d="M156.506 109.45a7.81 7.81 0 0 0 8.596 11.489l18.242-4.914-4.781-17.736a7.783 7.783 0 0 0-3.724-5.044 7.802 7.802 0 0 0-10.66 2.874c-1.923 3.338-1.099 7.506 1.765 9.891a7.802 7.802 0 0 0-9.438 3.44z" fill="#f00"/><path d="M202.326 84.534a5.542 5.542 0 0 0-8.153 6.1l3.488 12.946 12.586-3.393a5.523 5.523 0 0 0 3.58-2.642 5.537 5.537 0 0 0-2.04-7.567 5.543 5.543 0 0 0-7.019 1.254 5.537 5.537 0 0 0-2.442-6.698z" fill="#19b4fa"/><path d="M174.39 62.273a4.03 4.03 0 0 0-1.056 7.33l8.451 4.864 4.728-8.218c.58-.92.788-2.068.482-3.2a4.032 4.032 0 1 0-7.905 1.412 4.027 4.027 0 0 0-4.7-2.188zM201.341 115.093a2.015 2.015 0 0 0-2.134 3.026l2.66 4.085 3.972-2.588a2.014 2.014 0 0 0-.614-3.704 2.016 2.016 0 0 0-2.287 1.223 2.013 2.013 0 0 0-1.597-2.042z" fill="#f00"/><path d="M197.527 60.72a1.763 1.763 0 0 0 .384 3.216l4.123 1.1 1.067-4.009a1.762 1.762 0 0 0-2.568-2.049 1.764 1.764 0 0 0-.771 2.134 1.762 1.762 0 0 0-2.235-.393zM159.645 48.658a2.52 2.52 0 0 0-2.862 3.637l3.054 5.274 5.127-2.97a2.517 2.517 0 0 0-.525-4.663 2.52 2.52 0 0 0-2.934 1.375 2.517 2.517 0 0 0-1.86-2.653z" fill="#19b4fa"/></g></svg>
